<svg width="174" height="32" viewBox="0 0 174 32" fill="none" xmlns="http://www.w3.org/2000/svg">
<path d="M13.9474 14.1762C13.9836 14.7402 14.0026 15.3426 14.0026 15.9852C14.0026 22.6197 11.844 25.1705 9.18057 25.1705C5.98631 25.1705 4.48974 21.4033 4.36718 16.6328L9.18143 15.0852L18.6667 10.1328L7.40004 12.3082L4.53807 13.2344C5.04901 9.50574 6.63967 6.8 9.18057 6.8C10.7143 6.8 12.0814 7.5582 12.9643 9.52049L16.8499 8.3459C15.2074 5.19344 12.386 4 9.18143 4C3.21669 4 0 9.37295 0 16C0 22.6271 2.82658 28 9.18143 28C14.252 28 18.3629 24.6672 18.3629 16C18.3629 14.8738 18.299 13.8418 18.1764 12.8984L13.9465 14.1762H13.9474Z" fill="#31343B"/>
<path d="M40.8301 9.59771C38.8735 9.59771 37.3741 10.2103 36.3318 11.4354C35.3078 12.6423 34.7958 14.3246 34.7958 16.4823C34.7958 17.5063 34.9147 18.448 35.1524 19.3074C35.4084 20.1486 35.7741 20.8709 36.2495 21.4743C36.7433 22.0777 37.3467 22.5531 38.0598 22.9006C38.7913 23.2297 39.6415 23.3943 40.6107 23.3943C41.2141 23.3943 41.7353 23.376 42.1741 23.3394C42.613 23.2846 42.9604 23.2206 43.2164 23.1474V16.3177H46.6724V25.4514C46.197 25.6343 45.3924 25.8354 44.2587 26.0549C43.125 26.2743 41.8175 26.384 40.3364 26.384C38.965 26.384 37.7124 26.1646 36.5787 25.7257C35.445 25.2869 34.4758 24.6469 33.6713 23.8057C32.885 22.9646 32.2724 21.9314 31.8335 20.7063C31.3947 19.4811 31.1753 18.0731 31.1753 16.4823C31.1753 14.8914 31.413 13.4834 31.8884 12.2583C32.3821 11.0331 33.0495 10 33.8907 9.15886C34.7318 8.29943 35.7193 7.65028 36.853 7.21143C37.9867 6.77257 39.1935 6.55314 40.4735 6.55314C41.3513 6.55314 42.1284 6.61714 42.805 6.74514C43.4998 6.85486 44.0941 6.98286 44.5878 7.12914C45.0815 7.27543 45.4838 7.43086 45.7947 7.59543C46.1238 7.76 46.3524 7.87886 46.4804 7.952L45.4381 10.7771C44.8895 10.448 44.2038 10.1737 43.381 9.95428C42.5764 9.71657 41.7261 9.59771 40.8301 9.59771ZM63.4756 18.8137C63.4756 19.9474 63.311 20.9806 62.9819 21.9131C62.6528 22.8457 62.1865 23.6411 61.583 24.2994C60.9796 24.9577 60.2482 25.4697 59.3888 25.8354C58.5476 26.2011 57.615 26.384 56.591 26.384C55.567 26.384 54.6345 26.2011 53.7933 25.8354C52.9522 25.4697 52.2299 24.9577 51.6265 24.2994C51.023 23.6411 50.5476 22.8457 50.2002 21.9131C49.871 20.9806 49.7065 19.9474 49.7065 18.8137C49.7065 17.68 49.871 16.656 50.2002 15.7417C50.5476 14.8091 51.023 14.0137 51.6265 13.3554C52.2482 12.6971 52.9796 12.1943 53.8208 11.8469C54.6619 11.4811 55.5853 11.2983 56.591 11.2983C57.5968 11.2983 58.5202 11.4811 59.3613 11.8469C60.2208 12.1943 60.9522 12.6971 61.5556 13.3554C62.159 14.0137 62.6253 14.8091 62.9545 15.7417C63.3019 16.656 63.4756 17.68 63.4756 18.8137ZM60.0745 18.8137C60.0745 17.3874 59.7636 16.2629 59.1419 15.44C58.5385 14.5989 57.6882 14.1783 56.591 14.1783C55.4939 14.1783 54.6345 14.5989 54.0128 15.44C53.4093 16.2629 53.1076 17.3874 53.1076 18.8137C53.1076 20.2583 53.4093 21.4011 54.0128 22.2423C54.6345 23.0834 55.4939 23.504 56.591 23.504C57.6882 23.504 58.5385 23.0834 59.1419 22.2423C59.7636 21.4011 60.0745 20.2583 60.0745 18.8137ZM71.9416 23.6686C72.9656 23.6686 73.7428 23.6137 74.273 23.504V19.8286C74.0902 19.7737 73.825 19.7189 73.4776 19.664C73.1302 19.6091 72.7462 19.5817 72.3256 19.5817C71.9599 19.5817 71.585 19.6091 71.201 19.664C70.8353 19.7189 70.497 19.8194 70.1862 19.9657C69.8936 20.112 69.6559 20.3223 69.473 20.5966C69.2902 20.8526 69.1988 21.1817 69.1988 21.584C69.1988 22.3703 69.4456 22.9189 69.9393 23.2297C70.433 23.5223 71.1005 23.6686 71.9416 23.6686ZM71.6673 11.2983C72.7645 11.2983 73.6879 11.4354 74.4376 11.7097C75.1873 11.984 75.7816 12.368 76.2205 12.8617C76.6776 13.3554 76.9976 13.9589 77.1805 14.672C77.3816 15.3669 77.4822 16.1349 77.4822 16.976V25.6709C76.9702 25.7806 76.193 25.9086 75.1508 26.0549C74.1268 26.2194 72.9656 26.3017 71.6673 26.3017C70.8079 26.3017 70.0216 26.2194 69.3085 26.0549C68.5953 25.8903 67.9828 25.6251 67.4708 25.2594C66.977 24.8937 66.5839 24.4183 66.2913 23.8331C66.017 23.248 65.8799 22.5257 65.8799 21.6663C65.8799 20.8434 66.0353 20.1486 66.3462 19.5817C66.6753 19.0149 67.1142 18.5577 67.6628 18.2103C68.2113 17.8446 68.8422 17.5886 69.5553 17.4423C70.2868 17.2777 71.0456 17.1954 71.8319 17.1954C72.1976 17.1954 72.5816 17.2229 72.9839 17.2777C73.3862 17.3143 73.8159 17.3874 74.273 17.4971V16.9486C74.273 16.5646 74.2273 16.1989 74.1359 15.8514C74.0445 15.504 73.8799 15.2023 73.6422 14.9463C73.4228 14.672 73.121 14.4617 72.737 14.3154C72.3713 14.1691 71.905 14.096 71.3382 14.096C70.5702 14.096 69.8662 14.1509 69.2262 14.2606C68.5862 14.3703 68.065 14.4983 67.6628 14.6446L67.2513 11.9566C67.6719 11.8103 68.2845 11.664 69.089 11.5177C69.8936 11.3714 70.753 11.2983 71.6673 11.2983ZM86.5385 26.2743C85.5511 26.256 84.7283 26.1463 84.07 25.9451C83.43 25.744 82.918 25.4606 82.534 25.0949C82.15 24.7109 81.8757 24.2446 81.7111 23.696C81.5648 23.1291 81.4917 22.4891 81.4917 21.776V5.264L84.8105 4.71543V21.1451C84.8105 21.5474 84.838 21.8857 84.8928 22.16C84.966 22.4343 85.0848 22.672 85.2494 22.8731C85.414 23.056 85.6334 23.2023 85.9077 23.312C86.2003 23.4034 86.566 23.4766 87.0048 23.5314L86.5385 26.2743ZM95.5317 4.71543C96.2997 4.71543 96.9763 4.78857 97.5614 4.93486C98.1465 5.06286 98.5854 5.18171 98.878 5.29143L98.2471 8.03428C97.9363 7.888 97.5705 7.76914 97.15 7.67771C96.7477 7.58628 96.3088 7.54057 95.8334 7.54057C95.3031 7.54057 94.8551 7.62286 94.4894 7.78743C94.1237 7.93371 93.8311 8.144 93.6117 8.41828C93.3923 8.69257 93.2368 9.03086 93.1454 9.43314C93.054 9.81714 93.0083 10.2377 93.0083 10.6949V11.6549H98.2197V14.4251H93.0083V26H89.6894V10.64C89.6894 8.79314 90.174 7.34857 91.1431 6.30628C92.1123 5.24571 93.5751 4.71543 95.5317 4.71543ZM112.839 11.6549C111.358 17.104 109.639 22.0411 107.682 26.4663C107.317 27.2891 106.942 27.9931 106.558 28.5783C106.174 29.1634 105.744 29.648 105.269 30.032C104.793 30.416 104.263 30.6903 103.678 30.8549C103.093 31.0377 102.416 31.1291 101.648 31.1291C101.136 31.1291 100.624 31.0743 100.112 30.9646C99.6183 30.8549 99.2435 30.736 98.9875 30.608L99.5909 27.9474C100.249 28.2034 100.898 28.3314 101.538 28.3314C102.398 28.3314 103.065 28.1211 103.541 27.7006C104.034 27.2983 104.464 26.6674 104.83 25.808C103.787 23.7966 102.782 21.6023 101.813 19.2251C100.862 16.848 100.011 14.3246 99.2618 11.6549H102.8C102.983 12.4229 103.202 13.2549 103.458 14.1509C103.733 15.0469 104.025 15.9611 104.336 16.8937C104.647 17.808 104.976 18.7223 105.323 19.6366C105.671 20.5509 106.018 21.4011 106.366 22.1874C106.951 20.56 107.499 18.832 108.011 17.0034C108.523 15.1566 108.99 13.3737 109.41 11.6549H112.839ZM118.971 23.1474C119.172 23.1657 119.437 23.184 119.766 23.2023C120.095 23.2023 120.543 23.2023 121.11 23.2023C123.432 23.2023 125.16 22.6171 126.294 21.4469C127.446 20.2583 128.022 18.6034 128.022 16.4823C128.022 14.3246 127.464 12.6697 126.349 11.5177C125.234 10.3657 123.506 9.78971 121.165 9.78971C120.141 9.78971 119.41 9.81714 118.971 9.872V23.1474ZM131.643 16.4823C131.643 18.128 131.387 19.5634 130.875 20.7886C130.363 21.9954 129.631 23.0103 128.68 23.8331C127.748 24.6377 126.614 25.2411 125.279 25.6434C123.963 26.0274 122.5 26.2194 120.891 26.2194C120.123 26.2194 119.254 26.1829 118.285 26.1097C117.316 26.0549 116.392 25.9269 115.515 25.7257V7.26628C116.392 7.06514 117.325 6.93714 118.312 6.88228C119.3 6.82743 120.178 6.8 120.946 6.8C122.536 6.8 123.99 6.992 125.307 7.376C126.623 7.74171 127.748 8.32686 128.68 9.13143C129.631 9.91771 130.363 10.9234 130.875 12.1486C131.387 13.3554 131.643 14.8 131.643 16.4823ZM139.977 23.6686C141.001 23.6686 141.778 23.6137 142.309 23.504V19.8286C142.126 19.7737 141.861 19.7189 141.513 19.664C141.166 19.6091 140.782 19.5817 140.361 19.5817C139.996 19.5817 139.621 19.6091 139.237 19.664C138.871 19.7189 138.533 19.8194 138.222 19.9657C137.929 20.112 137.692 20.3223 137.509 20.5966C137.326 20.8526 137.234 21.1817 137.234 21.584C137.234 22.3703 137.481 22.9189 137.975 23.2297C138.469 23.5223 139.136 23.6686 139.977 23.6686ZM139.703 11.2983C140.8 11.2983 141.724 11.4354 142.473 11.7097C143.223 11.984 143.817 12.368 144.256 12.8617C144.713 13.3554 145.033 13.9589 145.216 14.672C145.417 15.3669 145.518 16.1349 145.518 16.976V25.6709C145.006 25.7806 144.229 25.9086 143.186 26.0549C142.162 26.2194 141.001 26.3017 139.703 26.3017C138.844 26.3017 138.057 26.2194 137.344 26.0549C136.631 25.8903 136.018 25.6251 135.506 25.2594C135.013 24.8937 134.62 24.4183 134.327 23.8331C134.053 23.248 133.916 22.5257 133.916 21.6663C133.916 20.8434 134.071 20.1486 134.382 19.5817C134.711 19.0149 135.15 18.5577 135.698 18.2103C136.247 17.8446 136.878 17.5886 137.591 17.4423C138.322 17.2777 139.081 17.1954 139.868 17.1954C140.233 17.1954 140.617 17.2229 141.02 17.2777C141.422 17.3143 141.852 17.3874 142.309 17.4971V16.9486C142.309 16.5646 142.263 16.1989 142.172 15.8514C142.08 15.504 141.916 15.2023 141.678 14.9463C141.458 14.672 141.157 14.4617 140.773 14.3154C140.407 14.1691 139.941 14.096 139.374 14.096C138.606 14.096 137.902 14.1509 137.262 14.2606C136.622 14.3703 136.101 14.4983 135.698 14.6446L135.287 11.9566C135.708 11.8103 136.32 11.664 137.125 11.5177C137.929 11.3714 138.789 11.2983 139.703 11.2983ZM149.418 7.86971L152.737 7.32114V11.6549H157.838V14.4251H152.737V20.2674C152.737 21.4194 152.919 22.2423 153.285 22.736C153.651 23.2297 154.273 23.4766 155.15 23.4766C155.754 23.4766 156.284 23.4126 156.741 23.2846C157.217 23.1566 157.591 23.0377 157.866 22.928L158.414 25.5611C158.03 25.7257 157.527 25.8903 156.906 26.0549C156.284 26.2377 155.553 26.3291 154.711 26.3291C153.687 26.3291 152.828 26.192 152.133 25.9177C151.457 25.6434 150.917 25.2503 150.515 24.7383C150.113 24.208 149.829 23.5771 149.665 22.8457C149.5 22.096 149.418 21.2457 149.418 20.2949V7.86971ZM166.093 23.6686C167.117 23.6686 167.895 23.6137 168.425 23.504V19.8286C168.242 19.7737 167.977 19.7189 167.629 19.664C167.282 19.6091 166.898 19.5817 166.477 19.5817C166.112 19.5817 165.737 19.6091 165.353 19.664C164.987 19.7189 164.649 19.8194 164.338 19.9657C164.045 20.112 163.808 20.3223 163.625 20.5966C163.442 20.8526 163.351 21.1817 163.351 21.584C163.351 22.3703 163.597 22.9189 164.091 23.2297C164.585 23.5223 165.252 23.6686 166.093 23.6686ZM165.819 11.2983C166.916 11.2983 167.84 11.4354 168.589 11.7097C169.339 11.984 169.933 12.368 170.372 12.8617C170.829 13.3554 171.149 13.9589 171.332 14.672C171.533 15.3669 171.634 16.1349 171.634 16.976V25.6709C171.122 25.7806 170.345 25.9086 169.303 26.0549C168.279 26.2194 167.117 26.3017 165.819 26.3017C164.96 26.3017 164.173 26.2194 163.46 26.0549C162.747 25.8903 162.135 25.6251 161.623 25.2594C161.129 24.8937 160.736 24.4183 160.443 23.8331C160.169 23.248 160.032 22.5257 160.032 21.6663C160.032 20.8434 160.187 20.1486 160.498 19.5817C160.827 19.0149 161.266 18.5577 161.815 18.2103C162.363 17.8446 162.994 17.5886 163.707 17.4423C164.439 17.2777 165.197 17.1954 165.984 17.1954C166.349 17.1954 166.733 17.2229 167.136 17.2777C167.538 17.3143 167.968 17.3874 168.425 17.4971V16.9486C168.425 16.5646 168.379 16.1989 168.288 15.8514C168.196 15.504 168.032 15.2023 167.794 14.9463C167.575 14.672 167.273 14.4617 166.889 14.3154C166.523 14.1691 166.057 14.096 165.49 14.096C164.722 14.096 164.018 14.1509 163.378 14.2606C162.738 14.3703 162.217 14.4983 161.815 14.6446L161.403 11.9566C161.824 11.8103 162.436 11.664 163.241 11.5177C164.045 11.3714 164.905 11.2983 165.819 11.2983Z" fill="#31343B"/>
</svg>
